<svg width="91" height="95" viewBox="0 0 91 95" fill="none" xmlns="http://www.w3.org/2000/svg">
<g clip-path="url(#clip0_15_371)">
<path d="M6.61523 94.3871V0.612915H62.6275L85.3845 23.2781V94.3871H6.61523Z" fill="white"/>
<path d="M62.3754 1.22581L84.7692 23.5294V93.7742H7.23077V1.22581H62.3754ZM62.8862 0H6V95H86V23.0206L62.8862 0Z" fill="#313131"/>
<path d="M62.4492 0.612915V23.6274H85.3846L62.4492 0.612915Z" fill="#313131"/>
</g>
<rect y="62" width="91" height="24" fill="#FF5555"/>
<path d="M37.5781 70.4297C37.1146 70.4297 36.7031 70.5208 36.3438 70.7031C35.9896 70.8802 35.6901 71.138 35.4453 71.4766C35.2057 71.8151 35.0234 72.224 34.8984 72.7031C34.7734 73.1823 34.7109 73.7214 34.7109 74.3203C34.7109 75.1276 34.8099 75.8177 35.0078 76.3906C35.2109 76.9583 35.5234 77.3932 35.9453 77.6953C36.3672 77.9922 36.9115 78.1406 37.5781 78.1406C38.0417 78.1406 38.5052 78.0885 38.9688 77.9844C39.4375 77.8802 39.9453 77.7318 40.4922 77.5391V79.5703C39.987 79.7786 39.4896 79.9271 39 80.0156C38.5104 80.1094 37.9609 80.1562 37.3516 80.1562C36.1745 80.1562 35.2057 79.9141 34.4453 79.4297C33.6901 78.9401 33.1302 78.2578 32.7656 77.3828C32.401 76.5026 32.2188 75.4766 32.2188 74.3047C32.2188 73.4401 32.3359 72.6484 32.5703 71.9297C32.8047 71.2109 33.1484 70.5885 33.6016 70.0625C34.0547 69.5365 34.6146 69.1302 35.2812 68.8438C35.9479 68.5573 36.7135 68.4141 37.5781 68.4141C38.1458 68.4141 38.7135 68.487 39.2812 68.6328C39.8542 68.7734 40.401 68.9688 40.9219 69.2188L40.1406 71.1875C39.7135 70.9844 39.2839 70.8073 38.8516 70.6562C38.4193 70.5052 37.9948 70.4297 37.5781 70.4297ZM49.6719 76.8281C49.6719 77.5052 49.5078 78.0938 49.1797 78.5938C48.8516 79.0938 48.3724 79.4792 47.7422 79.75C47.1172 80.0208 46.3568 80.1562 45.4609 80.1562C45.0651 80.1562 44.6771 80.1302 44.2969 80.0781C43.9219 80.026 43.5599 79.9505 43.2109 79.8516C42.8672 79.7474 42.5391 79.6198 42.2266 79.4688V77.2188C42.7682 77.4583 43.3307 77.6745 43.9141 77.8672C44.4974 78.0599 45.0755 78.1562 45.6484 78.1562C46.0443 78.1562 46.362 78.1042 46.6016 78C46.8464 77.8958 47.0234 77.7526 47.1328 77.5703C47.2422 77.388 47.2969 77.1797 47.2969 76.9453C47.2969 76.6589 47.2005 76.4141 47.0078 76.2109C46.8151 76.0078 46.5495 75.8177 46.2109 75.6406C45.8776 75.4635 45.5 75.2734 45.0781 75.0703C44.8125 74.9453 44.5234 74.7943 44.2109 74.6172C43.8984 74.4349 43.6016 74.2135 43.3203 73.9531C43.0391 73.6927 42.8073 73.3776 42.625 73.0078C42.4479 72.6328 42.3594 72.1849 42.3594 71.6641C42.3594 70.9818 42.5156 70.3984 42.8281 69.9141C43.1406 69.4297 43.5859 69.0599 44.1641 68.8047C44.7474 68.5443 45.4349 68.4141 46.2266 68.4141C46.8203 68.4141 47.3854 68.4844 47.9219 68.625C48.4635 68.7604 49.0286 68.9583 49.6172 69.2188L48.8359 71.1016C48.3099 70.888 47.8385 70.724 47.4219 70.6094C47.0052 70.4896 46.5807 70.4297 46.1484 70.4297C45.8464 70.4297 45.5885 70.4792 45.375 70.5781C45.1615 70.6719 45 70.8073 44.8906 70.9844C44.7812 71.1562 44.7266 71.3568 44.7266 71.5859C44.7266 71.8568 44.8047 72.0859 44.9609 72.2734C45.1224 72.4557 45.362 72.6328 45.6797 72.8047C46.0026 72.9766 46.4036 73.1771 46.8828 73.4062C47.4661 73.6823 47.9635 73.9714 48.375 74.2734C48.7917 74.5703 49.112 74.9219 49.3359 75.3281C49.5599 75.7292 49.6719 76.2292 49.6719 76.8281ZM60.7031 68.5781L56.8203 80H54.1797L50.3047 68.5781H52.75L54.8984 75.375C54.9349 75.4896 54.9948 75.7057 55.0781 76.0234C55.1615 76.3359 55.2448 76.6693 55.3281 77.0234C55.4167 77.3724 55.4766 77.6615 55.5078 77.8906C55.5391 77.6615 55.5938 77.3724 55.6719 77.0234C55.7552 76.6745 55.8359 76.3438 55.9141 76.0312C55.9974 75.7135 56.0573 75.4948 56.0938 75.375L58.2578 68.5781H60.7031Z" fill="white"/>
<defs>
<clipPath id="clip0_15_371">
<rect width="80" height="95" fill="white" transform="translate(6)"/>
</clipPath>
</defs>
</svg>
