<svg width="91" height="95" viewBox="0 0 91 95" fill="none" xmlns="http://www.w3.org/2000/svg">
<g clip-path="url(#clip0_16_559)">
<path d="M6.61548 94.3871V0.612915H62.6278L85.3847 23.2781V94.3871H6.61548Z" fill="white"/>
<path d="M62.3754 1.22581L84.7692 23.5294V93.7742H7.23077V1.22581H62.3754ZM62.8862 0H6V95H86V23.0206L62.8862 0Z" fill="#313131"/>
<path d="M62.4492 0.612915V23.6274H85.3846L62.4492 0.612915Z" fill="#313131"/>
</g>
<rect y="62" width="91" height="24" fill="#FF5555"/>
<path d="M41.8438 73.5859H46.375V79.5078C45.776 79.7057 45.1536 79.8646 44.5078 79.9844C43.862 80.099 43.1302 80.1562 42.3125 80.1562C41.1771 80.1562 40.2135 79.9323 39.4219 79.4844C38.6302 79.0365 38.0286 78.375 37.6172 77.5C37.2057 76.625 37 75.5495 37 74.2734C37 73.0755 37.2292 72.0391 37.6875 71.1641C38.151 70.2891 38.8255 69.612 39.7109 69.1328C40.6016 68.6536 41.6875 68.4141 42.9688 68.4141C43.5729 68.4141 44.1693 68.4792 44.7578 68.6094C45.3464 68.7396 45.8802 68.9089 46.3594 69.1172L45.5547 71.0547C45.2057 70.8776 44.8073 70.7292 44.3594 70.6094C43.9115 70.4896 43.4427 70.4297 42.9531 70.4297C42.25 70.4297 41.638 70.5911 41.1172 70.9141C40.6016 71.237 40.2005 71.6901 39.9141 72.2734C39.6328 72.8516 39.4922 73.5339 39.4922 74.3203C39.4922 75.0651 39.5938 75.7266 39.7969 76.3047C40 76.8776 40.3203 77.3281 40.7578 77.6562C41.1953 77.9792 41.7656 78.1406 42.4688 78.1406C42.8125 78.1406 43.1016 78.125 43.3359 78.0938C43.5755 78.0573 43.7995 78.0208 44.0078 77.9844V75.6016H41.8438V73.5859ZM56.5469 80H48.0469V78.4297L53.5234 70.5781H48.1953V68.5781H56.3984V70.1406L50.9297 78H56.5469V80Z" fill="white"/>
<defs>
<clipPath id="clip0_16_559">
<rect width="80" height="95" fill="white" transform="translate(6)"/>
</clipPath>
</defs>
</svg>
