<svg width="91" height="95" viewBox="0 0 91 95" fill="none" xmlns="http://www.w3.org/2000/svg">
<g clip-path="url(#clip0_16_558)">
<path d="M5.61548 94.3871V0.612915H61.6278L84.3847 23.2781V94.3871H5.61548Z" fill="white"/>
<path d="M61.3754 1.22581L83.7692 23.5294V93.7742H6.23077V1.22581H61.3754ZM61.8862 0H5V95H85V23.0206L61.8862 0Z" fill="#313131"/>
<path d="M61.4492 0.612915V23.6274H84.3846L61.4492 0.612915Z" fill="#313131"/>
</g>
<g clip-path="url(#clip1_16_558)">
<path d="M5.61548 94.3871V0.612915H61.6278L84.3847 23.2781V94.3871H5.61548Z" fill="white"/>
<path d="M61.3754 1.22581L83.7692 23.5294V93.7742H6.23077V1.22581H61.3754ZM61.8862 0H5V95H85V23.0206L61.8862 0Z" fill="#313131"/>
<path d="M61.4492 0.612915V23.6274H84.3846L61.4492 0.612915Z" fill="#313131"/>
</g>
<g clip-path="url(#clip2_16_558)">
<path d="M5.61548 94.3871V0.612915H61.6278L84.3847 23.2781V94.3871H5.61548Z" fill="white"/>
<path d="M61.3754 1.22581L83.7692 23.5294V93.7742H6.23077V1.22581H61.3754ZM61.8862 0H5V95H85V23.0206L61.8862 0Z" fill="#313131"/>
<path d="M61.4492 0.612915V23.6274H84.3846L61.4492 0.612915Z" fill="#313131"/>
</g>
<rect y="61" width="91" height="24" fill="#FF5555"/>
<path d="M21.8906 79V67.5781H24.3125V79H21.8906ZM30.8359 67.5781C32.3099 67.5781 33.3854 67.8958 34.0625 68.5312C34.7396 69.1615 35.0781 70.0312 35.0781 71.1406C35.0781 71.6406 35.0026 72.1198 34.8516 72.5781C34.7005 73.0312 34.4531 73.4349 34.1094 73.7891C33.7708 74.1432 33.3177 74.4245 32.75 74.6328C32.1823 74.8359 31.4818 74.9375 30.6484 74.9375H29.6094V79H27.1875V67.5781H30.8359ZM30.7109 69.5625H29.6094V72.9531H30.4062C30.8594 72.9531 31.2526 72.8932 31.5859 72.7734C31.9193 72.6536 32.1771 72.4661 32.3594 72.2109C32.5417 71.9557 32.6328 71.6276 32.6328 71.2266C32.6328 70.6641 32.4766 70.2474 32.1641 69.9766C31.8516 69.7005 31.3672 69.5625 30.7109 69.5625ZM40.7891 72.2812L43.1719 67.5781H45.7812L41.9922 74.5547V79H39.5859V74.6328L35.7969 67.5781H38.4219L40.7891 72.2812ZM57.3516 79H54.2734L49.3047 70.3594H49.2344C49.2552 70.7188 49.2734 71.0807 49.2891 71.4453C49.3047 71.8099 49.3203 72.1745 49.3359 72.5391C49.3516 72.8984 49.3672 73.2604 49.3828 73.625V79H47.2188V67.5781H50.2734L55.2344 76.1328H55.2891C55.2786 75.7786 55.2656 75.4271 55.25 75.0781C55.2344 74.7292 55.2188 74.3802 55.2031 74.0312C55.1927 73.6823 55.1823 73.3333 55.1719 72.9844V67.5781H57.3516V79ZM60.2344 67.5781H63.7891C65.3099 67.5781 66.4609 67.7917 67.2422 68.2188C68.0234 68.6458 68.4141 69.3958 68.4141 70.4688C68.4141 70.901 68.3438 71.2917 68.2031 71.6406C68.0677 71.9896 67.8698 72.276 67.6094 72.5C67.349 72.724 67.0312 72.8698 66.6562 72.9375V73.0156C67.0365 73.0938 67.3802 73.2292 67.6875 73.4219C67.9948 73.6094 68.2396 73.8854 68.4219 74.25C68.6094 74.6094 68.7031 75.0885 68.7031 75.6875C68.7031 76.3802 68.5339 76.974 68.1953 77.4688C67.8568 77.9635 67.3724 78.3438 66.7422 78.6094C66.1172 78.8698 65.3724 79 64.5078 79H60.2344V67.5781ZM62.6562 72.1016H64.0625C64.7656 72.1016 65.2526 71.9922 65.5234 71.7734C65.7943 71.5495 65.9297 71.2214 65.9297 70.7891C65.9297 70.3516 65.7682 70.0391 65.4453 69.8516C65.1276 69.6589 64.6224 69.5625 63.9297 69.5625H62.6562V72.1016ZM62.6562 74.0234V77H64.2344C64.9635 77 65.4714 76.8594 65.7578 76.5781C66.0443 76.2969 66.1875 75.9193 66.1875 75.4453C66.1875 75.1641 66.125 74.9167 66 74.7031C65.875 74.4896 65.6641 74.3229 65.3672 74.2031C65.0755 74.0833 64.6719 74.0234 64.1562 74.0234H62.6562Z" fill="white"/>
<defs>
<clipPath id="clip0_16_558">
<rect width="80" height="95" fill="white" transform="translate(5)"/>
</clipPath>
<clipPath id="clip1_16_558">
<rect width="80" height="95" fill="white" transform="translate(5)"/>
</clipPath>
<clipPath id="clip2_16_558">
<rect width="80" height="95" fill="white" transform="translate(5)"/>
</clipPath>
</defs>
</svg>
