<svg width="91" height="95" viewBox="0 0 91 95" fill="none" xmlns="http://www.w3.org/2000/svg">
<g clip-path="url(#clip0_16_556)">
<path d="M5.61536 94.3871V0.612915H61.6277L84.3846 23.2781V94.3871H5.61536Z" fill="white"/>
<path d="M61.3754 1.22581L83.7692 23.5294V93.7742H6.23077V1.22581H61.3754ZM61.8862 0H5V95H85V23.0206L61.8862 0Z" fill="#313131"/>
<path d="M61.4492 0.612915V23.6274H84.3846L61.4492 0.612915Z" fill="#313131"/>
</g>
<rect y="61" width="91" height="24" fill="#FF5555"/>
<path d="M40.5703 67.5781C42.0443 67.5781 43.1198 67.8958 43.7969 68.5312C44.474 69.1615 44.8125 70.0312 44.8125 71.1406C44.8125 71.6406 44.737 72.1198 44.5859 72.5781C44.4349 73.0312 44.1875 73.4349 43.8438 73.7891C43.5052 74.1432 43.0521 74.4245 42.4844 74.6328C41.9167 74.8359 41.2161 74.9375 40.3828 74.9375H39.3438V79H36.9219V67.5781H40.5703ZM40.4453 69.5625H39.3438V72.9531H40.1406C40.5938 72.9531 40.987 72.8932 41.3203 72.7734C41.6536 72.6536 41.9115 72.4661 42.0938 72.2109C42.276 71.9557 42.3672 71.6276 42.3672 71.2266C42.3672 70.6641 42.2109 70.2474 41.8984 69.9766C41.5859 69.7005 41.1016 69.5625 40.4453 69.5625ZM50.5234 72.2812L52.9062 67.5781H55.5156L51.7266 74.5547V79H49.3203V74.6328L45.5312 67.5781H48.1562L50.5234 72.2812Z" fill="white"/>
<defs>
<clipPath id="clip0_16_556">
<rect width="80" height="95" fill="white" transform="translate(5)"/>
</clipPath>
</defs>
</svg>
