<svg width="91" height="95" viewBox="0 0 91 95" fill="none" xmlns="http://www.w3.org/2000/svg">
<g clip-path="url(#clip0_16_560)">
<path d="M6.61548 94.3871V0.612915H62.6278L85.3847 23.2781V94.3871H6.61548Z" fill="white"/>
<path d="M62.3754 1.22581L84.7692 23.5294V93.7742H7.23077V1.22581H62.3754ZM62.8862 0H6V95H86V23.0206L62.8862 0Z" fill="#313131"/>
<path d="M62.4492 0.612915V23.6274H85.3846L62.4492 0.612915Z" fill="#313131"/>
<path d="M46 1V34" stroke="black" stroke-width="1.5"/>
<line x1="42" y1="8.25" x2="50" y2="8.25" stroke="black" stroke-width="1.5"/>
<line x1="42" y1="15.25" x2="50" y2="15.25" stroke="black" stroke-width="1.5"/>
<line x1="42" y1="22.25" x2="50" y2="22.25" stroke="black" stroke-width="1.5"/>
<rect x="43" y="29" width="6" height="9" fill="#313131"/>
</g>
<rect y="62" width="91" height="24" fill="#FF5555"/>
<path d="M42.5781 80H34.0781V78.4297L39.5547 70.5781H34.2266V68.5781H42.4297V70.1406L36.9609 78H42.5781V80ZM44.3984 80V68.5781H46.8203V80H44.3984ZM53.3438 68.5781C54.8177 68.5781 55.8932 68.8958 56.5703 69.5312C57.2474 70.1615 57.5859 71.0312 57.5859 72.1406C57.5859 72.6406 57.5104 73.1198 57.3594 73.5781C57.2083 74.0312 56.9609 74.4349 56.6172 74.7891C56.2786 75.1432 55.8255 75.4245 55.2578 75.6328C54.6901 75.8359 53.9896 75.9375 53.1562 75.9375H52.1172V80H49.6953V68.5781H53.3438ZM53.2188 70.5625H52.1172V73.9531H52.9141C53.3672 73.9531 53.7604 73.8932 54.0938 73.7734C54.4271 73.6536 54.6849 73.4661 54.8672 73.2109C55.0495 72.9557 55.1406 72.6276 55.1406 72.2266C55.1406 71.6641 54.9844 71.2474 54.6719 70.9766C54.3594 70.7005 53.875 70.5625 53.2188 70.5625Z" fill="white"/>
<defs>
<clipPath id="clip0_16_560">
<rect width="80" height="95" fill="white" transform="translate(6)"/>
</clipPath>
</defs>
</svg>
